<mxfile host="app.diagrams.net" modified="2022-10-21T13:20:32.269Z" agent="5.0 (Windows NT 10.0; Win64; x64) AppleWebKit/537.36 (KHTML, like Gecko) Chrome/106.0.0.0 Safari/537.36" etag="eu6iaorDgAarqVhJwNby" version="20.5.0" type="github">
  <diagram id="prtHgNgQTEPvFCAcTncT" name="Page-1">
    <mxGraphModel dx="1185" dy="628" grid="1" gridSize="10" guides="1" tooltips="1" connect="1" arrows="1" fold="1" page="1" pageScale="1" pageWidth="827" pageHeight="1169" math="0" shadow="0">
      <root>
        <mxCell id="0" />
        <mxCell id="1" parent="0" />
        <mxCell id="dNxyNK7c78bLwvsdeMH5-19" value="Suscripcion - arquitectura layer&lt;br&gt;" style="swimlane;html=1;childLayout=stackLayout;resizeParent=1;resizeParentMax=0;horizontal=0;startSize=20;horizontalStack=0;" parent="1" vertex="1">
          <mxGeometry x="120" y="120" width="490" height="660" as="geometry">
            <mxRectangle x="120" y="120" width="40" height="210" as="alternateBounds" />
          </mxGeometry>
        </mxCell>
        <mxCell id="dNxyNK7c78bLwvsdeMH5-20" value="consumidor" style="swimlane;html=1;startSize=20;horizontal=0;" parent="dNxyNK7c78bLwvsdeMH5-19" vertex="1">
          <mxGeometry x="20" width="470" height="120" as="geometry" />
        </mxCell>
        <mxCell id="dNxyNK7c78bLwvsdeMH5-24" value="ConsumidorMensaje Suscripcion" style="rounded=0;whiteSpace=wrap;html=1;fontFamily=Helvetica;fontSize=12;fontColor=#000000;align=center;" parent="dNxyNK7c78bLwvsdeMH5-20" vertex="1">
          <mxGeometry x="194" y="40" width="116" height="60" as="geometry" />
        </mxCell>
        <mxCell id="HY8yqm2_H1EazVH21vvg-19" value="" style="edgeStyle=orthogonalEdgeStyle;rounded=0;orthogonalLoop=1;jettySize=auto;html=1;" edge="1" parent="dNxyNK7c78bLwvsdeMH5-20" source="HY8yqm2_H1EazVH21vvg-18" target="dNxyNK7c78bLwvsdeMH5-24">
          <mxGeometry relative="1" as="geometry">
            <Array as="points">
              <mxPoint x="170" y="70" />
              <mxPoint x="170" y="70" />
            </Array>
          </mxGeometry>
        </mxCell>
        <mxCell id="HY8yqm2_H1EazVH21vvg-18" value="Topico" style="label;whiteSpace=wrap;html=1;image=img/clipart/Gear_128x128.png" vertex="1" parent="dNxyNK7c78bLwvsdeMH5-20">
          <mxGeometry x="40" y="20" width="50" height="60" as="geometry" />
        </mxCell>
        <mxCell id="dNxyNK7c78bLwvsdeMH5-21" value="fachada" style="swimlane;html=1;startSize=20;horizontal=0;" parent="dNxyNK7c78bLwvsdeMH5-19" vertex="1">
          <mxGeometry x="20" y="120" width="470" height="120" as="geometry" />
        </mxCell>
        <mxCell id="dNxyNK7c78bLwvsdeMH5-26" value="FachadaMensaje" style="rounded=0;whiteSpace=wrap;html=1;fontFamily=Helvetica;fontSize=12;fontColor=#000000;align=center;" parent="dNxyNK7c78bLwvsdeMH5-21" vertex="1">
          <mxGeometry x="150" y="20" width="100" height="60" as="geometry" />
        </mxCell>
        <mxCell id="HY8yqm2_H1EazVH21vvg-24" style="edgeStyle=orthogonalEdgeStyle;rounded=0;orthogonalLoop=1;jettySize=auto;html=1;" edge="1" parent="dNxyNK7c78bLwvsdeMH5-19" source="dNxyNK7c78bLwvsdeMH5-24" target="dNxyNK7c78bLwvsdeMH5-26">
          <mxGeometry relative="1" as="geometry">
            <Array as="points">
              <mxPoint x="290" y="130" />
              <mxPoint x="130" y="130" />
              <mxPoint x="130" y="170" />
            </Array>
          </mxGeometry>
        </mxCell>
        <mxCell id="dNxyNK7c78bLwvsdeMH5-22" value="servicio" style="swimlane;html=1;startSize=20;horizontal=0;" parent="dNxyNK7c78bLwvsdeMH5-19" vertex="1">
          <mxGeometry x="20" y="240" width="470" height="120" as="geometry" />
        </mxCell>
        <mxCell id="dNxyNK7c78bLwvsdeMH5-34" value="ServicioEjecutarProceso" style="rounded=0;whiteSpace=wrap;html=1;fontFamily=Helvetica;fontSize=12;fontColor=#000000;align=center;" parent="dNxyNK7c78bLwvsdeMH5-22" vertex="1">
          <mxGeometry x="117.5" y="28" width="165" height="60" as="geometry" />
        </mxCell>
        <mxCell id="HY8yqm2_H1EazVH21vvg-1" value="persistencia" style="swimlane;html=1;startSize=20;horizontal=0;" vertex="1" parent="dNxyNK7c78bLwvsdeMH5-19">
          <mxGeometry x="20" y="360" width="470" height="180" as="geometry" />
        </mxCell>
        <mxCell id="HY8yqm2_H1EazVH21vvg-25" value="DaoMensaje&lt;br&gt;SuscripcionSqlServer" style="whiteSpace=wrap;html=1;fontColor=#000000;" vertex="1" parent="HY8yqm2_H1EazVH21vvg-1">
          <mxGeometry x="310" y="90" width="130" height="70" as="geometry" />
        </mxCell>
        <mxCell id="HY8yqm2_H1EazVH21vvg-30" style="edgeStyle=orthogonalEdgeStyle;rounded=0;orthogonalLoop=1;jettySize=auto;html=1;" edge="1" parent="HY8yqm2_H1EazVH21vvg-1" source="HY8yqm2_H1EazVH21vvg-27" target="HY8yqm2_H1EazVH21vvg-25">
          <mxGeometry relative="1" as="geometry">
            <Array as="points">
              <mxPoint x="214" y="120" />
            </Array>
          </mxGeometry>
        </mxCell>
        <mxCell id="HY8yqm2_H1EazVH21vvg-27" value="DaoMensaje" style="ellipse;whiteSpace=wrap;html=1;fontColor=#000000;rounded=0;" vertex="1" parent="HY8yqm2_H1EazVH21vvg-1">
          <mxGeometry x="154" y="30" width="120" height="60" as="geometry" />
        </mxCell>
        <mxCell id="HY8yqm2_H1EazVH21vvg-10" value="datafactory" style="swimlane;html=1;startSize=20;horizontal=0;" vertex="1" parent="dNxyNK7c78bLwvsdeMH5-19">
          <mxGeometry x="20" y="540" width="470" height="120" as="geometry" />
        </mxCell>
        <mxCell id="HY8yqm2_H1EazVH21vvg-37" style="edgeStyle=orthogonalEdgeStyle;rounded=0;orthogonalLoop=1;jettySize=auto;html=1;" edge="1" parent="HY8yqm2_H1EazVH21vvg-10" source="HY8yqm2_H1EazVH21vvg-12" target="HY8yqm2_H1EazVH21vvg-35">
          <mxGeometry relative="1" as="geometry" />
        </mxCell>
        <mxCell id="HY8yqm2_H1EazVH21vvg-12" value="DataFactory" style="rounded=0;whiteSpace=wrap;html=1;fontFamily=Helvetica;fontSize=12;fontColor=#000000;align=center;" vertex="1" parent="HY8yqm2_H1EazVH21vvg-10">
          <mxGeometry x="37.5" y="30" width="80" height="60" as="geometry" />
        </mxCell>
        <mxCell id="HY8yqm2_H1EazVH21vvg-35" value="RepositorioDatafactory" style="whiteSpace=wrap;html=1;fontColor=#000000;" vertex="1" parent="HY8yqm2_H1EazVH21vvg-10">
          <mxGeometry x="250" y="30" width="140" height="60" as="geometry" />
        </mxCell>
        <mxCell id="HY8yqm2_H1EazVH21vvg-31" style="edgeStyle=orthogonalEdgeStyle;rounded=0;orthogonalLoop=1;jettySize=auto;html=1;" edge="1" parent="dNxyNK7c78bLwvsdeMH5-19" source="dNxyNK7c78bLwvsdeMH5-26" target="dNxyNK7c78bLwvsdeMH5-34">
          <mxGeometry relative="1" as="geometry" />
        </mxCell>
        <mxCell id="HY8yqm2_H1EazVH21vvg-32" style="edgeStyle=orthogonalEdgeStyle;rounded=0;orthogonalLoop=1;jettySize=auto;html=1;" edge="1" parent="dNxyNK7c78bLwvsdeMH5-19" source="dNxyNK7c78bLwvsdeMH5-34" target="HY8yqm2_H1EazVH21vvg-27">
          <mxGeometry relative="1" as="geometry">
            <Array as="points">
              <mxPoint x="240" y="360" />
              <mxPoint x="240" y="360" />
            </Array>
          </mxGeometry>
        </mxCell>
        <mxCell id="HY8yqm2_H1EazVH21vvg-38" style="edgeStyle=orthogonalEdgeStyle;rounded=0;orthogonalLoop=1;jettySize=auto;html=1;" edge="1" parent="dNxyNK7c78bLwvsdeMH5-19" source="dNxyNK7c78bLwvsdeMH5-34" target="HY8yqm2_H1EazVH21vvg-12">
          <mxGeometry relative="1" as="geometry">
            <Array as="points">
              <mxPoint x="100" y="298" />
            </Array>
          </mxGeometry>
        </mxCell>
        <mxCell id="HY8yqm2_H1EazVH21vvg-14" value="modelo" style="swimlane;html=1;startSize=20;horizontal=0;rotation=90;" vertex="1" parent="1">
          <mxGeometry x="340" y="390" width="666" height="120" as="geometry">
            <mxRectangle x="634" y="170" width="40" height="70" as="alternateBounds" />
          </mxGeometry>
        </mxCell>
        <mxCell id="HY8yqm2_H1EazVH21vvg-16" value="Mensaje" style="rounded=0;whiteSpace=wrap;html=1;fontFamily=Helvetica;fontSize=12;fontColor=#000000;align=center;rotation=0;" vertex="1" parent="HY8yqm2_H1EazVH21vvg-14">
          <mxGeometry x="290" y="22" width="91.5" height="60" as="geometry" />
        </mxCell>
      </root>
    </mxGraphModel>
  </diagram>
</mxfile>
